<svg width="130" height="111" viewBox="0 0 130 111" fill="none" xmlns="http://www.w3.org/2000/svg">
<path opacity="0.1" d="M44.1983 104.06C45.2646 107.075 48.5685 108.651 51.5835 107.585L65.65 102.61L66.4537 105.048L83.9239 99.3003L83.9974 99.5262C85.0847 102.967 88.7983 104.895 92.2388 103.803C95.6793 102.71 97.607 99.0009 96.5144 95.5598L96.3989 95.1921L111.358 90.2696L110.229 86.8444L125.393 81.4806C128.408 80.4141 129.984 77.1097 128.918 74.0942L86.4609 -45.9999L1.73613 -16.0341L44.1931 104.06L44.1983 104.06ZM89.0557 103.256C86.3874 103.256 84.2233 101.092 84.2233 98.423C84.2233 95.7542 86.3874 93.5898 89.0557 93.5898C91.724 93.5898 93.8881 95.7542 93.8881 98.423C93.8881 101.092 91.724 103.256 89.0557 103.256Z" fill="#254244"/>
<path d="M123.651 82.6948L49.8376 108.794C46.8267 109.859 43.5154 108.277 42.4509 105.266L2.0611e-05 -14.831L84.7282 -44.7896L127.179 75.3069C128.244 78.3183 126.662 81.6302 123.651 82.6948Z" fill="#254244"/>
<path d="M15.6502 -2.09162L79.9843 -24.8443C81.371 -25.3329 82.889 -24.6079 83.3775 -23.2263L117.935 74.5248C118.423 75.9118 117.698 77.43 116.317 77.9186L51.9826 100.671C50.5959 101.16 49.0779 100.435 48.5894 99.0532L14.0324 1.30213C13.5439 -0.0847793 14.2688 -1.60304 15.6502 -2.09162Z" fill="white"/>
<path d="M64.6993 106.277L82.1696 100.53L82.2431 100.755C83.3356 104.196 87.044 106.125 90.4844 105.032C93.9249 103.939 95.8526 100.23 94.7601 96.7891L94.6445 96.4214L109.604 91.4989L105.008 77.5247L60.1033 92.3026L64.6993 106.277ZM88.6618 96.4214C90.3321 96.4214 91.682 97.7715 91.682 99.4421C91.682 101.113 90.3321 102.463 88.6618 102.463C86.9915 102.463 85.6415 101.113 85.6415 99.4421C85.6415 97.7715 86.9915 96.4214 88.6618 96.4214Z" fill="#D1D1D1"/>
<mask id="mask0_1564_487" style="mask-type:luminance" maskUnits="userSpaceOnUse" x="60" y="77" width="50" height="30">
<path d="M64.6993 106.277L82.1696 100.53L82.2431 100.755C83.3356 104.196 87.044 106.125 90.4844 105.032C93.9249 103.939 95.8526 100.23 94.7601 96.7891L94.6445 96.4214L109.604 91.4989L105.008 77.5247L60.1033 92.3026L64.6993 106.277ZM88.6618 96.4214C90.3321 96.4214 91.682 97.7715 91.682 99.4421C91.682 101.113 90.3321 102.463 88.6618 102.463C86.9915 102.463 85.6415 101.113 85.6415 99.4421C85.6415 97.7715 86.9915 96.4214 88.6618 96.4214Z" fill="white"/>
</mask>
<g mask="url(#mask0_1564_487)">
<path opacity="0.2" d="M65.9861 109.476C65.9861 109.476 68.1765 88.2521 97.6384 75.6386L54.6562 84.7691L65.9861 109.471L65.9861 109.476Z" fill="#B7B7B7"/>
</g>
<path opacity="0.1" d="M104.073 63.0828L49.5613 81.9795" stroke="black" stroke-linecap="round" stroke-linejoin="round"/>
<path opacity="0.1" d="M101.21 54.3621L46.6985 73.2588" stroke="black" stroke-linecap="round" stroke-linejoin="round"/>
<path opacity="0.1" d="M98.3477 45.6468L43.8359 64.5435" stroke="black" stroke-linecap="round" stroke-linejoin="round"/>
<path opacity="0.1" d="M95.4849 36.9261L40.9679 55.8227" stroke="black" stroke-linecap="round" stroke-linejoin="round"/>
<path opacity="0.1" d="M92.6223 28.2054L38.1053 47.102" stroke="black" stroke-linecap="round" stroke-linejoin="round"/>
</svg>
