<svg width="149" height="199" viewBox="0 0 149 199" fill="none" xmlns="http://www.w3.org/2000/svg">
<path opacity="0.1" d="M147.192 105.846C150.287 92.3705 147.974 78.5363 140.682 66.898L124.697 41.3798C124 40.2721 122.905 39.5683 121.719 39.3207C115.066 27.4022 107.768 18.0903 100.509 10.9353C95.2628 5.76129 89.5675 3.35674 83.5724 3.77379C77.7663 4.17781 72.9247 7.19489 69.66 9.92526C67.6855 8.56333 64.9747 8.53075 62.9611 10.0426C60.4328 11.9323 59.9115 15.5424 61.8012 18.0707L63.0263 19.7129C64.916 22.2412 68.5261 22.7625 71.0545 20.8728C73.1137 19.3349 73.837 16.6502 73.0159 14.3434C75.629 12.1148 79.5062 9.59292 83.983 9.29317C88.3164 8.99993 92.5651 10.8832 96.6248 14.8777C102.509 20.6773 109.566 30.7581 116.591 41.9272C115.978 43.2891 116.031 44.9182 116.878 46.2736L132.862 71.7918C138.851 81.3448 140.741 92.7094 138.199 103.781C135.658 114.852 132.882 128.178 123.322 134.167C113.769 140.149 98.521 138.122 87.4432 135.581C76.3653 133.039 66.9687 126.373 60.9867 116.82L43.5293 88.9559C42.5909 87.4572 40.9292 86.7013 39.2741 86.8251C32.5296 75.4736 26.7626 64.5912 24.2734 56.6999C22.5596 51.2652 22.8267 46.6255 25.0553 42.9047C27.3621 39.06 31.3697 36.7532 34.5432 35.4434C36.2244 37.2289 38.9417 37.8023 41.2485 36.6685C44.0832 35.2805 45.2626 31.8268 43.8746 28.9922L42.9754 27.1546C41.5874 24.3199 38.1337 23.1405 35.2991 24.5285C33.0379 25.6363 31.8324 28.0669 32.1452 30.4388C28.2288 32.1005 23.335 35.0394 20.331 40.0179C17.2292 45.1659 16.7795 51.3304 18.9951 58.355C22.123 68.273 27.2057 79.2531 35.058 90.8653C34.9407 91.8688 35.1362 92.9114 35.7096 93.8367L53.167 121.701C60.4588 133.339 71.8951 141.458 85.371 144.554C95.5626 146.893 109.84 150.067 119.341 146.411C120.579 145.935 121.798 145.394 123.003 144.821C134.778 165.654 130.692 179.495 122.599 185.607C112.609 193.159 93.9009 191.42 77.4796 173.473C58.8493 153.116 42.2912 148.874 31.6825 148.894C28.1506 148.9 25.0228 149.376 22.351 150.034C21.556 149.232 20.6633 148.516 19.6402 147.923C13.3975 144.293 5.40193 146.417 1.7723 152.66C-1.85732 158.903 0.267017 166.898 6.50971 170.528C12.7524 174.158 20.748 172.033 24.3776 165.791C25.7526 163.425 26.3 160.799 26.111 158.264C35.4555 156.524 51.4727 158.245 70.9176 179.482C87.1043 197.167 105.787 201.422 119.328 197.128C122.534 196.111 125.447 194.613 127.975 192.703C134.778 187.562 138.747 179.56 139.164 170.176C139.561 161.099 136.616 150.803 130.64 140.233C140.46 132.433 144.318 118.325 147.185 105.833L147.192 105.846Z" fill="#254244"/>
<path d="M119.334 193.407C105.793 197.701 87.1108 193.446 70.9241 175.76C40.3102 142.318 18.174 157.267 17.2487 157.918C15.2547 159.326 12.4787 158.87 11.0516 156.882C9.63103 154.895 10.0611 152.145 12.0356 150.705C12.3418 150.477 19.7379 145.198 31.689 145.172C42.2977 145.153 58.8493 149.395 77.4861 169.752C93.9139 187.698 112.622 189.445 122.606 181.886C131.077 175.48 135.169 160.629 121.263 138.135C119.973 136.043 120.618 133.299 122.71 132.009C124.802 130.712 127.545 131.364 128.835 133.456C136.029 145.094 139.6 156.504 139.157 166.461C138.747 175.845 134.772 183.84 127.969 188.988C125.44 190.898 122.527 192.396 119.321 193.413L119.334 193.407Z" fill="#2D4F54"/>
<mask id="mask0_1564_397" style="mask-type:luminance" maskUnits="userSpaceOnUse" x="10" y="131" width="130" height="64">
<path d="M119.334 193.407C105.793 197.701 87.1108 193.446 70.9241 175.76C40.3102 142.318 18.174 157.267 17.2487 157.918C15.2547 159.326 12.4787 158.87 11.0516 156.882C9.63103 154.895 10.0611 152.145 12.0356 150.705C12.3418 150.477 19.7379 145.198 31.689 145.172C42.2977 145.153 58.8493 149.395 77.4861 169.752C93.9139 187.698 112.622 189.445 122.606 181.886C131.077 175.48 135.169 160.629 121.263 138.135C119.973 136.043 120.618 133.299 122.71 132.009C124.802 130.712 127.545 131.364 128.835 133.456C136.029 145.094 139.6 156.504 139.157 166.461C138.747 175.845 134.772 183.84 127.969 188.988C125.44 190.898 122.527 192.396 119.321 193.413L119.334 193.407Z" fill="white"/>
</mask>
<g mask="url(#mask0_1564_397)">
<path d="M131.155 135.835C130.692 135.085 130.047 134.531 129.311 134.173C135.026 144.58 137.88 154.68 137.567 163.581C137.241 172.939 133.436 180.882 126.854 185.959C124.41 187.842 121.582 189.308 118.467 190.298C105.317 194.475 87.078 190.07 71.165 172.3C41.0723 138.695 16.1537 154.563 15.2544 155.208C13.6579 156.355 11.527 156.224 10.0478 155.012C8.80969 156.531 12.1721 157.593 13.3646 159.261C14.7852 161.248 17.5612 161.705 19.5617 160.297C20.4871 159.645 42.6232 144.697 73.2372 178.139C89.4239 195.824 108.106 200.08 121.647 195.785C124.853 194.769 127.766 193.27 130.295 191.361C137.098 186.219 141.066 178.217 141.483 168.833C141.92 158.876 138.349 147.466 131.161 135.828L131.155 135.835Z" fill="#223D3F"/>
</g>
<path d="M134.791 65.5489C125.603 38.115 112.981 19.5042 100.508 7.20776C95.2627 2.03375 89.5674 -0.370796 83.5724 0.0462528C72.9116 0.78912 65.4764 10.3487 65.1636 10.7527C64.2448 11.9582 64.4663 13.6981 65.6784 14.6299C66.8904 15.5552 68.6238 15.3272 69.5491 14.1216C69.6208 14.0304 75.8309 6.11301 83.9829 5.56563C88.3163 5.27239 92.565 7.15563 96.6247 11.1502C106.086 20.4816 118.585 40.8714 129.109 59.0651" fill="white"/>
<mask id="mask1_1564_397" style="mask-type:luminance" maskUnits="userSpaceOnUse" x="64" y="0" width="71" height="66">
<path d="M134.791 65.5489C125.603 38.115 112.981 19.5042 100.508 7.20776C95.2627 2.03375 89.5674 -0.370796 83.5724 0.0462528C72.9116 0.78912 65.4764 10.3487 65.1636 10.7527C64.2448 11.9582 64.4663 13.6981 65.6784 14.6299C66.8904 15.5552 68.6238 15.3272 69.5491 14.1216C69.6208 14.0304 75.8309 6.11301 83.9829 5.56563C88.3163 5.27239 92.565 7.15563 96.6247 11.1502C106.086 20.4816 118.585 40.8714 129.109 59.0651" fill="white"/>
</mask>
<g mask="url(#mask1_1564_397)">
<g opacity="0.03">
<path d="M116.148 167.028C141.249 133.234 141.79 98.6064 137.411 74.6847C131.52 42.5264 114.864 16.7606 102.392 4.45766C97.146 -0.709832 91.4507 -3.12089 85.4556 -2.70385C74.7948 -1.96098 64.1731 6.77098 63.8604 7.17499C62.9415 8.38052 63.1631 10.1204 64.3752 11.0522C65.5872 11.9776 67.3206 11.7495 68.2459 10.544C68.3176 10.4527 77.7142 3.36291 85.8662 2.81553C90.1996 2.52229 94.4483 4.40553 98.508 8.40007C123.739 33.2796 160.375 109.072 104.894 172.157C103.871 173.317 103.995 175.05 105.142 176.06C106.289 177.07 108.035 176.959 109.045 175.812C111.606 172.9 113.971 169.967 116.154 167.035L116.148 167.028Z" fill="black"/>
</g>
</g>
<path d="M69.6764 18.172L72.4422 16.1037C74.2147 14.7782 74.5771 12.2667 73.2515 10.4942L69.9539 6.08453C68.6284 4.31202 66.1169 3.94966 64.3444 5.27519L61.5786 7.34354C59.8061 8.66906 59.4437 11.1805 60.7692 12.953L64.0669 17.3627C65.3924 19.1352 67.9039 19.4976 69.6764 18.172Z" fill="#2D4F54"/>
<mask id="mask2_1564_397" style="mask-type:luminance" maskUnits="userSpaceOnUse" x="59" y="4" width="16" height="15">
<path d="M69.6761 18.172L72.442 16.1037C74.2145 14.7782 74.5768 12.2667 73.2513 10.4942L69.9536 6.08453C68.6281 4.31202 66.1167 3.94966 64.3442 5.27519L61.5783 7.34354C59.8058 8.66906 59.4435 11.1805 60.769 12.953L64.0666 17.3627C65.3922 19.1352 67.9036 19.4976 69.6761 18.172Z" fill="white"/>
</mask>
<g mask="url(#mask2_1564_397)">
<path d="M71.7907 11.8603L70.5656 10.2181C68.6758 7.68979 65.0657 7.16848 62.5374 9.05823C61.7815 9.62516 61.208 10.342 60.8236 11.1435C60.6998 9.26675 61.4948 7.36397 63.1043 6.15844C65.6327 4.26869 69.2427 4.79 71.1325 7.31836L72.3576 8.96048C73.6804 10.7329 73.8172 13.0332 72.9115 14.9034C72.8398 13.8347 72.4749 12.7726 71.7907 11.8603Z" fill="#254244"/>
</g>
<path d="M55.3369 111.73C35.097 91.0537 24.2798 71.3417 19.0146 54.6337C16.799 47.609 17.2487 41.438 20.3505 36.2966C25.8698 27.141 37.7622 24.8799 38.2705 24.7886C39.7628 24.5215 41.2159 25.5119 41.4896 27.0107C41.7633 28.5095 40.7728 29.9496 39.2675 30.2298C39.1502 30.2494 29.2779 32.1717 25.0748 39.1768C22.8397 42.8977 22.5791 47.5438 24.2929 52.972C28.2874 65.6464 40.7467 86.0557 52.1504 103.715" fill="white"/>
<mask id="mask3_1564_397" style="mask-type:luminance" maskUnits="userSpaceOnUse" x="17" y="24" width="39" height="88">
<path d="M55.3369 111.73C35.097 91.0537 24.2798 71.3417 19.0146 54.6337C16.799 47.609 17.2487 41.438 20.3505 36.2966C25.8698 27.141 37.7622 24.8799 38.2705 24.7886C39.7628 24.5215 41.2159 25.5119 41.4896 27.0107C41.7633 28.5095 40.7728 29.9496 39.2675 30.2298C39.1502 30.2494 29.2779 32.1717 25.0748 39.1768C22.8397 42.8977 22.5791 47.5438 24.2929 52.972C28.2874 65.6464 40.7467 86.0557 52.1504 103.715" fill="white"/>
</mask>
<g mask="url(#mask3_1564_397)">
<g opacity="0.03">
<path d="M154.164 141.367C112.648 148.32 81.5717 133.026 62.2767 118.227C36.335 98.3328 20.9824 71.7655 15.7107 55.064C13.4951 48.0394 13.9447 41.8683 17.0465 36.7269C22.5659 27.5714 35.1751 22.0976 35.6768 22.0064C37.1691 21.7392 38.6223 22.7297 38.8959 24.2285C39.1696 25.7273 38.1791 27.1674 36.6739 27.4476C36.5566 27.4671 25.9674 32.6086 21.7644 39.6072C19.5293 43.328 19.2686 47.9742 20.9824 53.4023C31.6367 87.1963 82.4254 154.335 163.854 133.678C165.353 133.293 166.839 134.199 167.217 135.678C167.595 137.157 166.695 138.663 165.216 139.041C161.456 139.992 157.768 140.767 154.164 141.367Z" fill="black"/>
</g>
</g>
<path d="M119.354 142.69C109.86 146.345 95.5757 143.172 85.384 140.832C71.9081 137.737 60.4719 129.624 53.1801 117.979L35.7227 90.1154C34.3738 87.9585 35.0254 85.1108 37.1823 83.7619C39.3393 82.413 42.1869 83.0647 43.5358 85.2216L60.9932 113.086C66.9818 122.639 76.3719 129.305 87.4497 131.846C98.5276 134.388 113.776 136.421 123.329 130.432C132.882 124.444 135.658 111.124 138.206 100.046C140.747 88.9685 138.851 77.6105 132.869 68.0574L116.884 42.5393C115.535 40.3824 116.187 37.5347 118.344 36.1858C120.501 34.8369 123.348 35.4886 124.697 37.6455L140.682 63.1636C147.974 74.8084 150.287 88.6362 147.192 102.112C144.097 115.588 139.868 130.954 128.229 138.245C125.388 140.024 122.423 141.504 119.36 142.683L119.354 142.69Z" fill="#2D4F54"/>
<mask id="mask4_1564_397" style="mask-type:luminance" maskUnits="userSpaceOnUse" x="35" y="35" width="114" height="110">
<path d="M119.354 142.69C109.86 146.345 95.5757 143.172 85.384 140.832C71.9081 137.737 60.4719 129.624 53.1801 117.979L35.7227 90.1154C34.3738 87.9585 35.0254 85.1108 37.1823 83.7619C39.3393 82.413 42.1869 83.0647 43.5358 85.2216L60.9932 113.086C66.9818 122.639 76.3719 129.305 87.4497 131.846C98.5276 134.388 113.776 136.421 123.329 130.432C132.882 124.444 135.658 111.124 138.206 100.046C140.747 88.9685 138.851 77.6105 132.869 68.0574L116.884 42.5393C115.535 40.3824 116.187 37.5347 118.344 36.1858C120.501 34.8369 123.348 35.4886 124.697 37.6455L140.682 63.1636C147.974 74.8084 150.287 88.6362 147.192 102.112C144.097 115.588 139.868 130.954 128.229 138.245C125.388 140.024 122.423 141.504 119.36 142.683L119.354 142.69Z" fill="white"/>
</mask>
<g mask="url(#mask4_1564_397)">
<path d="M142.683 63.3724L126.339 37.3264C125.349 35.7429 123.563 34.961 121.817 35.1565L136.772 59.5994C144.077 71.5374 146.592 85.6063 143.849 99.1995C141.106 112.799 138.773 125.467 127.617 132.635C124.893 134.381 122.045 135.828 119.093 136.962C109.944 140.487 94.5525 139.81 84.615 137.242C71.478 133.847 60.2177 125.395 52.9128 113.457L35.6965 85.3196C34.2499 86.8444 33.9436 89.1968 35.1101 91.054L52.9584 119.491C60.4132 131.371 72.1231 139.647 85.9248 142.788C96.3641 145.166 112.336 145.616 122.071 141.862C125.212 140.65 128.255 139.132 131.168 137.314C143.106 129.846 146.117 116.918 149.31 103.148C152.503 89.3793 150.15 75.2518 142.696 63.3724H142.683Z" fill="#223D3F"/>
</g>
<path d="M33.7654 21.5654L36.8666 20.0454C38.8502 19.0732 41.2567 19.8967 42.2289 21.8803L44.6522 26.8247C45.6244 28.8084 44.801 31.2149 42.8173 32.1871L39.7161 33.707C37.7325 34.6792 35.326 33.8558 34.3538 31.8721L31.9305 26.9277C30.9583 24.9441 31.7817 22.5376 33.7654 21.5654Z" fill="#2D4F54"/>
<mask id="mask5_1564_397" style="mask-type:luminance" maskUnits="userSpaceOnUse" x="31" y="19" width="15" height="16">
<path d="M33.7654 21.5654L36.8666 20.0454C38.8502 19.0732 41.2567 19.8967 42.2289 21.8803L44.6522 26.8247C45.6244 28.8084 44.801 31.2149 42.8173 32.1871L39.7161 33.707C37.7325 34.6792 35.326 33.8558 34.3538 31.8721L31.9305 26.9277C30.9583 24.9441 31.7817 22.5376 33.7654 21.5654Z" fill="white"/>
</mask>
<g mask="url(#mask5_1564_397)">
<path d="M36.2373 31.1943L35.338 29.3567C33.95 26.5221 35.1295 23.0684 37.9641 21.6804C38.8112 21.2634 39.717 21.0874 40.6032 21.107C38.9872 20.1425 36.9345 19.9796 35.1295 20.8659C32.2948 22.2538 31.1154 25.7075 32.5034 28.5421L33.4026 30.3798C34.3736 32.3673 36.3611 33.5337 38.4398 33.5793C37.521 33.0319 36.7455 32.2239 36.2373 31.1943Z" fill="#254244"/>
</g>
<path d="M24.3906 162.069C28.0202 155.827 25.8959 147.831 19.6532 144.202C13.4105 140.572 5.41487 142.696 1.78524 148.939C-1.84438 155.182 0.279957 163.177 6.52265 166.807C12.7653 170.436 20.7675 168.312 24.3906 162.069Z" fill="white"/>
<mask id="mask6_1564_397" style="mask-type:luminance" maskUnits="userSpaceOnUse" x="0" y="142" width="27" height="27">
<path d="M24.3906 162.069C28.0202 155.827 25.8959 147.831 19.6532 144.202C13.4105 140.572 5.41487 142.696 1.78524 148.939C-1.84438 155.182 0.279957 163.177 6.52265 166.807C12.7653 170.436 20.7675 168.312 24.3906 162.069Z" fill="white"/>
</mask>
<g mask="url(#mask6_1564_397)">
<path opacity="0.7" d="M24.84 149.109C24.84 149.109 7.26536 132.811 -0.854056 158.857C-0.854056 158.857 -4.47065 141.426 7.22626 137.06C18.9232 132.694 24.84 149.109 24.84 149.109Z" fill="#F4F4F4"/>
</g>
<path d="M21.6601 159.424C23.589 154.98 21.5559 149.806 17.1052 147.877C12.661 145.948 7.487 147.981 5.55815 152.432C3.6293 156.876 5.66241 162.05 10.1131 163.979C14.5573 165.908 19.7313 163.874 21.6601 159.424Z" fill="#254244"/>
<mask id="mask7_1564_397" style="mask-type:luminance" maskUnits="userSpaceOnUse" x="4" y="147" width="19" height="18">
<path d="M21.6601 159.424C23.589 154.98 21.5559 149.806 17.1052 147.877C12.661 145.948 7.487 147.981 5.55815 152.432C3.6293 156.876 5.66241 162.05 10.1131 163.979C14.5573 165.908 19.7313 163.874 21.6601 159.424Z" fill="white"/>
</mask>
<g mask="url(#mask7_1564_397)">
<path opacity="0.15" d="M4.92618 158.257C4.92618 158.257 7.59138 143.934 21.6472 151.122C21.6472 151.122 14.8181 141.191 6.34675 149.278C6.34675 149.278 3.22541 153.963 4.91967 158.257H4.92618Z" fill="#4C4C4C"/>
<g opacity="0.04">
<path d="M8.94681 159.554C8.94681 159.554 9.12275 159.58 9.4225 159.632C9.72226 159.684 10.1393 159.763 10.6215 159.828C11.0972 159.899 11.6381 159.971 12.1789 159.997C12.4526 160.017 12.7263 160.017 12.9935 160.01C13.2607 160.01 13.5278 159.978 13.7885 159.952L14.1469 159.899L14.388 159.854L14.5444 159.815C14.792 159.763 15.0331 159.691 15.2677 159.613C15.7434 159.463 16.2061 159.267 16.6296 159.072C17.0532 158.876 17.4311 158.687 17.7179 158.55C17.9915 158.414 18.1805 158.335 18.1805 158.335H18.1936C18.4216 158.238 18.6758 158.348 18.767 158.577C18.7931 158.642 18.8061 158.72 18.7931 158.785C18.7931 158.785 18.7735 158.987 18.6693 159.319C18.5715 159.658 18.376 160.114 18.0306 160.623C17.6853 161.124 17.1705 161.659 16.4732 162.076C16.1279 162.284 15.7434 162.46 15.3329 162.597L14.994 162.688L14.7268 162.747C14.4662 162.793 14.2837 162.806 14.0557 162.832C13.189 162.897 12.3418 162.773 11.6185 162.519C10.8952 162.271 10.2892 161.919 9.82 161.568C9.5789 161.398 9.38992 161.203 9.21398 161.046C9.03804 160.89 8.91423 160.72 8.80345 160.59C8.69267 160.46 8.62099 160.342 8.56234 160.264C8.50369 160.18 8.48414 160.14 8.48414 160.14C8.3864 159.919 8.48414 159.665 8.69267 159.561C8.77086 159.521 8.86209 159.515 8.94029 159.528L8.94681 159.554Z" fill="white"/>
</g>
</g>
</svg>
