<svg width="20" height="11" viewBox="0 0 20 11" fill="none" xmlns="http://www.w3.org/2000/svg">
<rect width="20" height="3.54167" fill="#108D00"/>
<rect y="3.5415" width="20" height="3.54167" fill="#D9D9D9"/>
<rect y="7.0835" width="20" height="3.54167" fill="black"/>
<path d="M3.74992 4.375L3.98379 5.09477L4.7406 5.09477L4.12833 5.53962L4.36219 6.25939L3.74992 5.81455L3.13764 6.25939L3.37151 5.53962L2.75923 5.09477L3.51605 5.09477L3.74992 4.375Z" fill="#FF0000"/>
<path d="M9.99992 4.375L10.2338 5.09477L10.9906 5.09477L10.3783 5.53962L10.6122 6.25939L9.99992 5.81455L9.38764 6.25939L9.62151 5.53962L9.00923 5.09477L9.76605 5.09477L9.99992 4.375Z" fill="#FF0000"/>
<path d="M16.2499 4.375L16.4838 5.09477L17.2406 5.09477L16.6283 5.53962L16.8622 6.25939L16.2499 5.81455L15.6376 6.25939L15.8715 5.53962L15.2592 5.09477L16.016 5.09477L16.2499 4.375Z" fill="#FF0000"/>
</svg>
